<svg width="51" height="49" viewBox="0 0 51 49" fill="none" xmlns="http://www.w3.org/2000/svg">
<path d="M18.7913 24.3624L18.7005 24.5L18.7913 24.6376L34.2913 48.1376L34.5 48.4541L34.7087 48.1376L50.2087 24.6376L50.2995 24.5L50.2087 24.3624L34.7087 0.862351L34.5 0.545946L34.2913 0.862351L18.7913 24.3624ZM34.7083 8.01505L34.5 7.70139L34.2917 8.01505L23.4387 24.3599L23.3472 24.4977L23.4383 24.6358L34.2913 41.0904L34.5 41.4068L34.7087 41.0904L45.5617 24.6358L45.6528 24.4977L45.5613 24.3599L34.7083 8.01505ZM20.4638 24.5L34.5 3.21927L48.5362 24.5L34.5 45.7807L20.4638 24.5ZM34.5 38.7334L25.1123 24.5005L34.5 10.3624L43.8877 24.5005L34.5 38.7334Z" fill="#B27A08" stroke="#B27A08" stroke-width="0.5"/>
<path d="M2.8125 34.5L0.269531 13.8633H4.19531L5.70703 27.9023L7.05469 13.8633H10.9805L8.4375 34.5H2.8125ZM15.36 34.5V13.875H19.3444V34.5H15.36ZM24.345 34.5V13.875H29.7942C30.9348 13.875 31.8372 14.1289 32.5012 14.6367C33.1731 15.1445 33.6536 15.8672 33.9427 16.8047C34.2317 17.7422 34.3762 18.8594 34.3762 20.1562C34.3762 21.4062 34.2552 22.4961 34.013 23.4258C33.7708 24.3477 33.3372 25.0625 32.7122 25.5703C32.095 26.0781 31.2161 26.332 30.0755 26.332H28.3997V34.5H24.345ZM28.3997 22.6289H28.6341C29.3997 22.6289 29.8684 22.4141 30.0403 21.9844C30.2122 21.5547 30.2981 20.9219 30.2981 20.0859C30.2981 19.3047 30.2122 18.7031 30.0403 18.2812C29.8762 17.8516 29.4817 17.6367 28.8567 17.6367H28.3997V22.6289Z" fill="#E6EFEC"/>
</svg>
